<svg id="visual" viewBox="0 0 900 600" width="900" height="600" xmlns="http://www.w3.org/2000/svg" xmlns:xlink="http://www.w3.org/1999/xlink" version="1.1"><path d="M0 145L82 175L164 211L245 175L327 193L409 139L491 169L573 181L655 217L736 115L818 139L900 235L900 0L818 0L736 0L655 0L573 0L491 0L409 0L327 0L245 0L164 0L82 0L0 0Z" fill="#78716c"></path><path d="M0 343L82 265L164 313L245 379L327 343L409 313L491 277L573 331L655 331L736 367L818 409L900 349L900 233L818 137L736 113L655 215L573 179L491 167L409 137L327 191L245 173L164 209L82 173L0 143Z" fill="#6a645f"></path><path d="M0 445L82 385L164 391L245 433L327 391L409 367L491 385L573 379L655 403L736 445L818 469L900 451L900 347L818 407L736 365L655 329L573 329L491 275L409 311L327 341L245 377L164 311L82 263L0 341Z" fill="#5d5853"></path><path d="M0 547L82 511L164 511L245 553L327 505L409 529L491 505L573 505L655 517L736 541L818 553L900 499L900 449L818 467L736 443L655 401L573 377L491 383L409 365L327 389L245 431L164 389L82 383L0 443Z" fill="#504c47"></path><path d="M0 601L82 601L164 601L245 601L327 601L409 601L491 601L573 601L655 601L736 601L818 601L900 601L900 497L818 551L736 539L655 515L573 503L491 503L409 527L327 503L245 551L164 509L82 509L0 545Z" fill="#44403c"></path></svg>